<svg width="1440" height="993" viewBox="0 0 1440 993" fill="none" xmlns="http://www.w3.org/2000/svg">
<g clip-path="url(#clip0_38_827)">
<mask id="mask0_38_827" style="mask-type:alpha" maskUnits="userSpaceOnUse" x="0" y="0" width="1512" height="993">
<rect width="1512" height="993" fill="#07474F"/>
</mask>
<g mask="url(#mask0_38_827)">
<path d="M491.17 428.631C470.901 402.519 415.49 405.574 385.503 420.421C372.497 426.865 360.472 437.892 353.012 456.367C336.276 497.659 382.706 523.771 412.251 535.754C427.858 542.103 445.674 540.67 460.005 531.935C483.514 517.566 528.47 476.703 491.17 428.631Z" stroke="#F4F2EC" stroke-opacity="0.1" stroke-width="1.7778" stroke-miterlimit="10"/>
<path d="M788.197 574.962C792.32 567.944 788.246 559.017 780.148 557.06C753.694 550.711 696.762 536.438 668.935 524.408C631.929 508.416 504.569 486.457 529.206 568.374C552.421 645.422 746.284 646.52 788.197 574.962Z" stroke="#F4F2EC" stroke-opacity="0.1" stroke-width="1.7778" stroke-miterlimit="10"/>
<path d="M827.755 518.092C769.203 508.401 713.45 486.538 664.91 453.217C616.764 420.135 517.477 376.933 449.11 376.504C377.209 376.026 255.983 420.469 270.363 500.429C270.363 500.429 280.621 544.395 379.27 556.377C477.87 568.359 572.396 660.301 572.396 660.301C572.396 660.301 675.119 728.23 872.368 582.346C872.368 582.346 918.502 534.37 841.006 520.383C836.295 519.572 831.877 518.808 827.755 518.092Z" stroke="#F4F2EC" stroke-opacity="0.1" stroke-width="1.7778" stroke-miterlimit="10"/>
<path d="M630.506 390.312C606.85 371.742 580.544 356.514 552.176 345.916C506.091 328.683 439.981 315.794 375.147 344.58C258.044 396.518 194.34 476 223.1 509.225C223.1 509.225 260.008 570.424 349.43 590.378C349.43 590.378 446.656 632.339 505.403 692.297C505.403 692.297 617.598 796.22 868.245 636.349C868.245 636.349 1007.97 569.946 915.508 509.225C915.508 509.225 851.117 474.329 789.817 474.377C743.044 474.425 664.812 417.283 630.506 390.312Z" stroke="#F4F2EC" stroke-opacity="0.1" stroke-width="1.7778" stroke-miterlimit="10"/>
<path d="M908.637 180.55C908.637 180.55 820.147 164.94 841.006 207.855C861.865 250.771 923.361 266.381 938.085 241.653C952.808 216.925 944.759 196.16 908.637 180.55Z" stroke="#F4F2EC" stroke-opacity="0.1" stroke-width="1.7778" stroke-miterlimit="10"/>
<path d="M947.164 157.162C947.164 157.162 796.393 105.128 750.897 77.8225C750.897 77.8225 637.279 -0.179879 598.506 44.0247C598.506 44.0247 569.108 68.7525 647.978 127.23C726.848 185.756 891.312 304.097 935.385 300.182C976.514 296.554 1011.8 272.495 995.85 226.142C993.544 219.411 991.385 212.68 989.52 205.854C985.79 191.962 975.287 167.139 947.164 157.162Z" stroke="#F4F2EC" stroke-opacity="0.1" stroke-width="1.7778" stroke-miterlimit="10"/>
<path d="M315.074 -741.395C315.074 -741.395 158.659 -366.897 377.896 -277.199C569.746 -198.672 606.212 -157.14 612.347 -148.023C615.243 -143.679 618.383 -139.43 621.573 -135.277C695.143 -38.5613 774.945 30.4189 774.945 30.4189C1003.56 126.084 1041 215.591 1041 215.591C1041 215.591 1104.81 377.754 923.999 327.583C923.999 327.583 548.495 100.163 463.048 152.244C329.602 233.588 50.9307 419.286 -85.9019 409.07" stroke="#F4F2EC" stroke-opacity="0.1" stroke-width="1.7778" stroke-miterlimit="10"/>
<path d="M379.957 -673.179C379.957 -673.179 256.179 -454.543 373.429 -354.724C373.429 -354.724 439.686 -283.548 577.598 -262.878C577.598 -262.878 657.254 -258.438 702.456 -126.541C702.456 -126.541 757.817 4.97522 920.711 55.6721C920.711 55.6721 1174.79 158.641 1119.43 285.383C1082.82 369.114 1012.83 393.412 937.103 388.782C879.337 385.249 824.123 364.579 777.694 330.972C722.726 291.207 623.488 226.714 539.17 211.438C503.097 204.898 465.943 214.732 437.674 237.55C420.447 251.442 394.926 268.245 365.233 275.883C309.872 290.157 272.376 295.408 252.842 327.631C233.309 359.853 116.009 454.898 -22.4429 437.474" stroke="#F4F2EC" stroke-opacity="0.1" stroke-width="1.7778" stroke-miterlimit="10"/>
<path d="M-69.6079 -208.989C-69.6079 -208.989 52.55 -269.185 114.439 -136.094C176.328 -3.00281 254.51 -66.3978 300.154 -105.972C345.798 -145.546 539.611 -231.139 560.765 -69.5485C581.918 92.042 367.54 103.165 284.154 195.059C284.154 195.059 127.494 348.916 -69.6079 376.556" stroke="#F4F2EC" stroke-opacity="0.1" stroke-width="1.7778" stroke-miterlimit="10"/>
<path d="M-46.7861 -140.807C-46.7861 -140.807 33.0164 -212.079 76.9913 -83.7614C120.966 44.556 200.769 30.3304 269.185 -17.2158C337.602 -64.762 487.096 -122.19 498.875 -33.0644C498.875 -33.0644 546.09 -4.56542 319.688 126.95C93.2859 258.466 101.433 294.89 -37.0194 290.116" stroke="#F4F2EC" stroke-opacity="0.1" stroke-width="1.7778" stroke-miterlimit="10"/>
<path d="M-37.0192 -36.2827C-37.0192 -36.2827 -7.47359 -58.0985 84.4516 30.4538C160.377 103.635 291.762 26.5393 335.098 -2.43714C348.939 -11.6981 364.841 -17.8085 381.528 -19.6225C405.675 -22.2481 428.742 -16.3286 391.393 30.4538C329.504 107.931 5.33613 282.171 -94 225.173" stroke="#F4F2EC" stroke-opacity="0.1" stroke-width="1.7778" stroke-miterlimit="10"/>
<path d="M1106.43 -698.531C1106.43 -698.531 1105.44 -610.17 947.115 -522.047C788.786 -433.925 656.419 -313.531 783.681 -196.289C910.944 -79.0464 999.728 -126.593 999.728 -126.593C999.728 -126.593 1072.17 -177.289 1067.31 -91.7445C1062.4 -6.19953 1080.36 42.5879 1163.41 64.9289C1208.41 77.0541 1244.34 105.505 1267.8 129.04C1291.6 152.908 1322.77 168.566 1356.63 173.101L1358.99 173.435C1380.39 176.3 1400.9 183.556 1419.16 194.774L1559.23 280.605" stroke="#F4F2EC" stroke-opacity="0.1" stroke-width="1.7778" stroke-miterlimit="10"/>
<path d="M1360.56 -673.179C1360.56 -673.179 1411.06 -539.085 1318.2 -480.989C1225.34 -422.845 1179.75 -402.271 1228.63 -381.648C1277.52 -361.074 1354.08 -300.829 1332.88 -196.285C1311.72 -91.7409 1385 -105.967 1385 -105.967C1385 -105.967 1424.11 -115.466 1445.27 -38.6573C1466.42 38.1516 1606.54 -4.57314 1606.54 -4.57314" stroke="#F4F2EC" stroke-opacity="0.1" stroke-width="1.7778" stroke-miterlimit="10"/>
<path d="M1312.46 -655.759C1312.46 -655.759 1378.96 -543.625 1229.32 -476.745C1079.68 -409.865 925.52 -343.033 1009.79 -339.787C1094.06 -336.541 1212.68 -402.323 1250.37 -307.422C1288.07 -212.52 1254.79 -143.492 1254.79 -143.492C1254.79 -143.492 1232.22 -88.1173 1290.62 -67.0175C1314.32 -58.4726 1336.9 -47.3021 1357.27 -32.6945C1376.26 -19.0895 1398.84 -1.04481 1419.99 20.4369C1469.91 71.1337 1589.61 40.9161 1589.61 40.9161" stroke="#F4F2EC" stroke-opacity="0.1" stroke-width="1.7778" stroke-miterlimit="10"/>
<path d="M1252.58 -665.451C1252.58 -665.451 1308.04 -560.668 1099.6 -447.531C891.165 -334.394 927.778 -317.113 945.054 -295.584C971.066 -263.123 1107.65 -333.487 1190.89 -305.418C1213.12 -297.923 1227.31 -276.68 1226.38 -253.814C1225.64 -235.244 1223.09 -208.654 1216.02 -175.859C1201.59 -108.979 1250.38 -48.592 1280.31 -44.2957C1310.25 -39.9993 1345.74 -6.96523 1366.79 30.4607C1387.85 67.8865 1427.75 134.718 1576.36 87.2678" stroke="#F4F2EC" stroke-opacity="0.1" stroke-width="1.7778" stroke-miterlimit="10"/>
<path d="M1179.31 -673.179C1179.31 -673.179 1154.82 -570.258 1039.88 -514.739C924.932 -459.269 755.413 -327.992 855.239 -222.54C955.066 -117.089 1090.77 -233.854 1090.77 -233.854C1090.77 -233.854 1156.49 -264.167 1127.38 -178.479C1098.28 -92.7908 1125.17 4.35428 1208.76 22.6853C1292.34 41.0164 1307.41 86.844 1307.41 86.844C1307.41 86.844 1349.56 138.161 1407.62 130.81C1465.69 123.458 1451.26 232.538 1559.28 215.591" stroke="#F4F2EC" stroke-opacity="0.1" stroke-width="1.7778" stroke-miterlimit="10"/>
<path d="M1338.57 253.397C1338.57 253.397 1248.17 188.713 1226.18 236.402C1204.19 284.092 1221.27 329.251 1282.37 310.204C1343.48 291.205 1375.72 275.022 1338.57 253.397Z" stroke="#F4F2EC" stroke-opacity="0.1" stroke-width="1.7778" stroke-miterlimit="10"/>
<path d="M1426.57 269C1419.5 249.762 1404.48 234.295 1385.64 225.32C1336.31 201.929 1219.06 154.669 1192.17 218.876C1157.81 300.697 1152.27 333.97 1208.81 338.744C1265.34 343.517 1292.19 337.837 1328.85 327.573C1360.41 318.742 1447.53 326.141 1426.57 269Z" stroke="#F4F2EC" stroke-opacity="0.1" stroke-width="1.7778" stroke-miterlimit="10"/>
<path d="M1589.66 340.424C1589.66 340.424 1509.61 312.594 1387.45 364.866C1265.3 417.138 1187.41 401.003 1127.38 409.071C1067.36 417.138 876.785 574.002 1028.29 711.82C1179.8 849.637 1164 766.765 1253.76 890.214C1343.53 1013.66 1559.28 1113.48 1606.54 1087.32" stroke="#F4F2EC" stroke-opacity="0.1" stroke-width="1.7778" stroke-miterlimit="10"/>
<path d="M1576.36 428.64C1576.36 428.64 1526.74 393.029 1394.82 439.572C1394.82 439.572 1253.37 459.956 1192.17 467.069C1130.97 474.182 959.925 596.246 1111.38 712.295C1262.89 828.296 1326.4 821.47 1385.05 890.259C1443.7 959.048 1534.1 1049.37 1641.59 1011.32" stroke="#F4F2EC" stroke-opacity="0.1" stroke-width="1.7778" stroke-miterlimit="10"/>
<path d="M1576.36 487.833C1576.36 487.833 1451.21 476.758 1320.17 509.172C1320.17 509.172 1226.92 519.435 1146.03 539.628C1065.15 559.821 1101.08 683.794 1232.12 712.293C1363.16 740.792 1449.15 890.257 1449.15 890.257C1449.15 890.257 1502.25 1007.64 1641.54 945.919" stroke="#F4F2EC" stroke-opacity="0.1" stroke-width="1.7778" stroke-miterlimit="10"/>
<path d="M1559.28 539.628C1559.28 539.628 1455.33 571.086 1391.82 568.318C1328.36 565.549 1219.85 541.633 1234.18 603.357C1240.61 631.14 1265.64 648.659 1291.16 659.496C1333.07 677.301 1367.58 708.14 1391.48 746.091C1423.13 796.215 1473.15 855.695 1534.4 860.278" stroke="#F4F2EC" stroke-opacity="0.1" stroke-width="1.7778" stroke-miterlimit="10"/>
<path d="M1576.36 611.34C1576.36 611.34 1400.9 583.461 1407.62 637.213C1414.35 690.965 1488.56 782.573 1576.36 770.638" stroke="#F4F2EC" stroke-opacity="0.1" stroke-width="1.7778" stroke-miterlimit="10"/>
<path d="M999.777 975.609C999.777 975.609 877.325 864.859 891.411 975.609C905.546 1086.36 986.87 1203.08 1177.98 1193.15C1369.1 1183.22 1338.62 1151.62 1297.98 1125.89C1257.3 1100.2 1085.91 1058.67 999.777 975.609Z" stroke="#F4F2EC" stroke-opacity="0.1" stroke-width="1.7778" stroke-miterlimit="10"/>
<path d="M1109.37 1572.89C1109.37 1572.89 1293.96 1311.81 1090.62 1260.4C887.287 1208.99 840.515 1042.86 825.006 921.038C809.497 799.213 887.288 795.585 958.943 868.766C987.9 898.315 1024.32 930.251 1057.49 957.843C1115.9 1006.39 1182.06 1045.39 1253.47 1073.08C1305.54 1093.27 1364.39 1113.94 1398.25 1118.67C1468.92 1128.55 1629.51 1189.18 1657.98 1244.55" stroke="#F4F2EC" stroke-opacity="0.1" stroke-width="1.7778" stroke-miterlimit="10"/>
<path d="M362.141 963.817C362.141 963.817 271.149 888.631 246.315 926.343C221.481 964.103 231.493 1027.59 269.186 1020.29C306.878 1012.99 382.264 1005.06 362.141 963.817Z" stroke="#F4F2EC" stroke-opacity="0.1" stroke-width="1.7778" stroke-miterlimit="10"/>
<path d="M414.067 941.195C396.841 926.158 375.491 916.276 352.718 911.98C320.228 905.87 261.725 891.883 232.72 866.534C191.248 830.254 79.3474 728.765 30.9064 820.325C-17.5838 911.884 64.5751 892.408 107.421 1020.92C137.997 1112.71 215.1 1093.38 256.67 1074.81C278.02 1065.26 300.007 1057.2 322.584 1051.04C380.939 1035 478.999 997.907 414.067 941.195Z" stroke="#F4F2EC" stroke-opacity="0.1" stroke-width="1.7778" stroke-miterlimit="10"/>
<path d="M-37.0191 627.416C-37.0191 627.416 379.515 777.931 483.023 921.047C586.531 1064.16 411.073 1074.19 411.073 1074.19C411.073 1074.19 247.051 1085.93 365.528 1227.42C484.005 1368.87 360.374 1352.54 299.124 1372.5C237.873 1392.45 286.363 1421.48 183.788 1372.5C81.2124 1323.52 -7.81707 1214.73 -69.5586 1307.19" stroke="#F4F2EC" stroke-opacity="0.1" stroke-width="1.7778" stroke-miterlimit="10"/>
<path d="M-13.854 558.2C-13.854 558.2 588.298 804.858 562.286 978.956C562.286 978.956 594.629 1069.66 442.386 1109.52C306.633 1145.08 420.84 1277.22 447.195 1305.48C454.901 1313.74 461.232 1323.14 465.502 1333.45C478.115 1363.96 479.146 1415.13 349.479 1421.43C163.273 1430.5 155.96 1463.15 16.0841 1361.57" stroke="#F4F2EC" stroke-opacity="0.1" stroke-width="1.7778" stroke-miterlimit="10"/>
<path d="M16.0356 509.178C16.0356 509.178 617.549 777.652 657.99 942.679C698.431 1107.71 552.519 1120.4 552.519 1120.4C552.519 1120.4 447.097 1174.82 526.115 1314.46C605.181 1454.09 231.002 1523.02 48.8693 1464.97" stroke="#F4F2EC" stroke-opacity="0.1" stroke-width="1.7778" stroke-miterlimit="10"/>
<path d="M1073 1612.04C1073 1612.04 1111.04 1499.34 1109.32 1408.11C1107.6 1316.88 1031.53 1259.65 931.067 1243.37C830.602 1227.09 691.315 929.927 789.817 820.322C857.546 744.945 936.612 792.11 979.409 828.915C1018.72 862.713 1062.35 890.926 1105.89 919.329C1264.51 1022.87 1594.81 1228.95 1790 1103.59" stroke="#F4F2EC" stroke-opacity="0.1" stroke-width="1.7778" stroke-miterlimit="10"/>
</g>
</g>
<defs>
<clipPath id="clip0_38_827">
<rect width="1440" height="993" fill="white"/>
</clipPath>
</defs>
</svg>
